<?xml version="1.0" encoding="utf-8"?>
<!-- Generator: Adobe Illustrator 28.3.0, SVG Export Plug-In . SVG Version: 6.00 Build 0)  -->
<svg version="1.1" id="Capa_1" xmlns="http://www.w3.org/2000/svg" xmlns:xlink="http://www.w3.org/1999/xlink" x="0px" y="0px"
	 viewBox="0 0 250 250" style="enable-background:new 0 0 250 250;" xml:space="preserve">
<g>
	<path d="M100.3,98.1c2.9-3.6,6.2-6.6,9.3-9.1c8.3-6.6,9.6-18.6,2.8-26.7c-5.1-6.1-13.5-8.4-21-5.6c-53,19.6-67.9,63.5-67.9,63.5
		c-3.2,7-4.7,14.3-4.7,21.5c0,0.1,0,0.2,0,0.4c0,0.2,0,0.3,0,0.4c0,0.8,0.1,1.7,0.1,2.5c1.5,27.7,24.4,49.6,52.4,49.6
		c29,0,52.6-23.5,52.6-52.6C124.1,123.6,114.6,107.5,100.3,98.1z"/>
	<path d="M178.5,55.4c-29,0-52.6,23.5-52.6,52.6c0,18.4,9.5,34.6,23.8,43.9c-2.9,3.6-6.2,6.6-9.3,9.1c-8.3,6.5-9.6,18.6-2.8,26.7
		c5.1,6.1,13.5,8.4,21,5.6c53-19.6,67.9-63.5,67.9-63.5c3.2-7,4.7-14.3,4.7-21.5c0-0.1,0-0.2,0-0.4c0-0.2,0-0.3,0-0.4
		c0-0.8-0.1-1.7-0.1-2.5C229.4,77.4,206.5,55.4,178.5,55.4z"/>
</g>
</svg>
