<?xml version="1.0" encoding="utf-8"?>
<!-- Generator: Adobe Illustrator 28.3.0, SVG Export Plug-In . SVG Version: 6.00 Build 0)  -->
<svg version="1.1" id="Capa_1" xmlns="http://www.w3.org/2000/svg" xmlns:xlink="http://www.w3.org/1999/xlink" x="0px" y="0px"
	 viewBox="0 0 250 250" style="enable-background:new 0 0 250 250;" xml:space="preserve">
<style type="text/css">
	.st0{fill:#FFFFFF;}
	.st1{fill:#FFCC00;}
</style>
<g>
	<path class="st1" d="M110.7,109.4c1.7-2.1,3.6-3.8,5.4-5.3c4.8-3.8,5.6-10.8,1.7-15.5c-3-3.6-7.8-4.9-12.2-3.3
		c-30.8,11.4-39.4,36.9-39.4,36.9c-1.9,4.1-2.7,8.3-2.7,12.5c0,0.1,0,0.1,0,0.2c0,0.1,0,0.2,0,0.3c0,0.5,0,1,0.1,1.4
		c0.9,16.1,14.2,28.8,30.4,28.8c16.9,0,30.5-13.7,30.5-30.5C124.5,124.2,119,114.8,110.7,109.4z"/>
	<path class="st1" d="M156,84.6c-16.9,0-30.5,13.7-30.5,30.5c0,10.7,5.5,20.1,13.8,25.5c-1.7,2.1-3.6,3.8-5.4,5.3
		c-4.8,3.8-5.6,10.8-1.7,15.5c3,3.6,7.8,4.9,12.2,3.3c30.8-11.4,39.4-36.9,39.4-36.9c1.9-4.1,2.7-8.3,2.7-12.5c0-0.1,0-0.1,0-0.2
		c0-0.1,0-0.2,0-0.3c0-0.5,0-1-0.1-1.4C185.6,97.4,172.3,84.6,156,84.6z"/>
	<path class="st1" d="M125,6.9C59.8,6.9,6.9,59.8,6.9,125S59.8,243.1,125,243.1S243.1,190.2,243.1,125S190.2,6.9,125,6.9z
		 M125,205.6c-44.5,0-80.6-36.1-80.6-80.6S80.5,44.4,125,44.4s80.6,36.1,80.6,80.6S169.5,205.6,125,205.6z"/>
</g>
</svg>
