<?xml version="1.0" encoding="utf-8"?>
<!-- Generator: Adobe Illustrator 28.3.0, SVG Export Plug-In . SVG Version: 6.00 Build 0)  -->
<svg version="1.1" id="Capa_1" xmlns="http://www.w3.org/2000/svg" xmlns:xlink="http://www.w3.org/1999/xlink" x="0px" y="0px"
	 viewBox="0 0 250 250" style="enable-background:new 0 0 250 250;" xml:space="preserve">
<style type="text/css">
	.st0{fill:#FFFFFF;}
	.st1{fill:#FFCC00;}
</style>
<g>
	<path d="M125,6.9C59.8,6.9,6.9,59.8,6.9,125S59.8,243.1,125,243.1S243.1,190.2,243.1,125S190.2,6.9,125,6.9z"/>
	<path class="st1" d="M125,44.4c-44.5,0-80.6,36.1-80.6,80.6c0,44.5,36.1,80.6,80.6,80.6s80.6-36.1,80.6-80.6
		C205.6,80.5,169.5,44.4,125,44.4z M94,165.4c-16.3,0-29.6-12.8-30.4-28.8c0-0.5-0.1-1-0.1-1.4c0-0.1,0-0.2,0-0.3c0-0.1,0-0.1,0-0.2
		c0-4.2,0.8-8.4,2.7-12.5c0,0,8.6-25.5,39.4-36.9c4.3-1.6,9.2-0.3,12.2,3.3c3.9,4.7,3.2,11.7-1.7,15.5c-1.8,1.5-3.7,3.2-5.4,5.3
		c8.3,5.5,13.8,14.8,13.8,25.5C124.5,151.7,110.8,165.4,94,165.4z M183.9,127.8c0,0-8.6,25.5-39.4,36.9c-4.3,1.6-9.2,0.3-12.2-3.3
		c-3.9-4.7-3.2-11.7,1.7-15.5c1.8-1.5,3.7-3.2,5.4-5.3c-8.3-5.5-13.8-14.8-13.8-25.5c0-16.9,13.7-30.5,30.5-30.5
		c16.3,0,29.6,12.8,30.4,28.8c0,0.5,0.1,1,0.1,1.4c0,0.1,0,0.2,0,0.3c0,0.1,0,0.1,0,0.2C186.6,119.5,185.7,123.8,183.9,127.8z"/>
</g>
</svg>
