<?xml version="1.0" encoding="UTF-8"?><svg id="Capa_1" xmlns="http://www.w3.org/2000/svg" viewBox="0 0 1080 544.04"><defs><style>.cls-1{fill:#919191;stroke-width:0px;}</style></defs><path class="cls-1" d="m209.47,332.3h-90.92s129.41-105.87,129.41-105.87c11.74-9.61,17.97-24.4,16.64-39.52h0c-1.48-16.73-15.49-29.55-32.28-29.55h-123.81c-13.03,0-24.18,9.35-26.45,22.18h0c0,17.34,14.19,31.53,31.53,31.53h72.24l-112.72,95.48c-14.14,11.98-21.69,30-20.3,48.48h0c1.31,17.48,15.87,30.99,33.4,30.99h125.01c14.71,0,27.03-11.92,26.86-27.31-.16-14.94-13.65-26.4-28.59-26.4Z"/><path class="cls-1" d="m367.74,334.9c10.35,0,21.43-1.59,33.22-4.75,2.87-.77,5.71-1.61,8.53-2.54,14.4-4.72,29.79,3.71,34.02,18.26h0c4.03,13.85-3.57,28.2-17.07,33.27-6.58,2.47-13.34,4.48-20.3,6.02-15.53,3.43-30.41,5.16-44.66,5.16-31.64,0-56.33-8.14-74.09-24.47-17.76-16.33-26.64-39.01-26.64-68.06s5.83-54.39,17.47-76.03c11.65-21.64,27.94-38.51,48.86-50.59,20.92-12.08,45.33-18.11,73.23-18.11,23.59,0,42.03,5.89,55.33,17.68,13.3,11.79,19.95,28.19,19.95,49.17,0,27.77-14.24,48.11-42.71,61.04-28.47,12.95-70.04,19.86-124.68,20.71l-8.84-40.97c37.38-.29,66.51-3.63,87.35-10.02,20.85-6.4,31.29-15.14,31.29-26.22,0-5.6-2.45-9.99-7.34-13.17-4.89-3.16-11.79-4.73-20.71-4.73-14.81,0-27.83,3.51-39.04,10.57-11.22,7.04-19.95,16.89-26.21,29.55-6.25,12.64-9.45,27.4-9.6,44.21.15,13.81,4.86,24.59,14.13,32.36,9.28,7.76,22.11,11.65,38.51,11.65Z"/><path class="cls-1" d="m568.11,390.32c-28.76,0-50.43-6.5-65.04-19.51-14.59-13.01-21.89-32.61-21.89-58.79,0-4.6.68-11.42,2.06-20.48,1.36-9.07,4.28-21.79,8.74-38.18l28.69-106.14c2.87-10.92,2.15-19.25-2.16-25.01-4.31-5.76-11.22-8.63-20.71-8.63-2.76,0-8.86.52-15.63,1.25-14.65,1.58-28-8.58-30.37-23.12h0c-2.54-15.64,8.47-30.69,24.25-32.12,1.07-.1,2.14-.18,3.2-.26,10.64-.78,21.28-1.18,31.93-1.18,29.19,0,50.01,7.54,62.45,22.65,12.44,15.11,14.63,37.25,6.57,66.43l-28.9,106.14c-4.17,15.38-6.94,27.11-8.31,35.15s-2.05,13.73-2.05,17.04c-.29,19.55,13.01,29.34,39.91,29.34,3.44,0,10.33-1.43,17.72-3.39,14.09-3.75,28.58,4.66,32.64,18.67h0c4.09,14.11-3.71,29.1-17.73,33.44-2.33.72-4.68,1.41-7.06,2.07-11.15,3.1-23.92,4.63-38.3,4.63Z"/><path class="cls-1" d="m759.6,127.81c11.29-9.48,26.93-14.23,46.92-14.23,6.04,0,12.73.21,20.07.64,1.07.06,2.17.14,3.29.22,13.28.94,25.52-7.54,29.09-20.37h0c4.89-17.54-7.98-34.66-26.16-35.55-5.02-.25-10.11-.37-15.29-.37-27.18,0-50.47,4.03-69.88,12.08-19.42,8.05-34.73,20.83-45.95,38.3-11.22,17.47-18.27,40.22-21.15,68.25l-2.67,26.1h-39.22c-16.63,0-28.64,15.93-24.06,31.91h0c3.07,10.73,12.89,18.13,24.06,18.13h34.09l-11.61,113.26c-1.43,14.95-5,26.88-10.67,35.79-5.68,8.92-13.2,15.53-22.54,19.86-9.36,4.3-20.28,7.17-32.79,8.63l-4.89.52c-14.29,1.52-25,13.77-24.61,28.14h0c.44,16.06,14.47,28.33,30.44,26.63l6.83-.73c23.15-2.44,42.85-7.7,59.1-15.75,16.25-8.05,29.12-20.11,38.61-36.12,9.49-16.04,15.61-37.29,18.34-63.76l12.12-116.48h126.12c12.14,0,22.53-8.71,24.64-20.67h0c2.71-15.32-9.08-29.38-24.64-29.38h-120.91l2.94-28.25c2.3-21.72,9.09-37.31,20.38-46.81Z"/><path class="cls-1" d="m894.14,386.01c-43.46,0-86.93-14-123.19-42-11.29-8.73-13.37-24.94-4.65-36.22,8.68-11.27,24.93-13.4,36.2-4.65,53.96,41.69,129.32,41.69,183.28,0,11.27-8.75,27.5-6.61,36.2,4.65,8.72,11.29,6.63,27.5-4.65,36.22-36.26,28-79.72,42-123.19,42Z"/><circle class="cls-1" cx="930.74" cy="227.84" r="26.81"/></svg>