<?xml version="1.0" encoding="utf-8"?>
<!-- Generator: Adobe Illustrator 28.3.0, SVG Export Plug-In . SVG Version: 6.00 Build 0)  -->
<svg version="1.1" id="Capa_1" xmlns="http://www.w3.org/2000/svg" xmlns:xlink="http://www.w3.org/1999/xlink" x="0px" y="0px"
	 viewBox="0 0 250 250" style="enable-background:new 0 0 250 250;" xml:space="preserve">
<g>
	<path d="M167.9,12.5c-11-4.2-22.4-6.9-34.2-7.6c-36.8-2.2-68.5,9.6-94.5,35.7C20.8,59.1,9.9,81.6,5.9,107.4
		c-0.5,3.6-0.8,7.3-1.1,10.9c0,0.5-0.1,0.9-0.2,1.4c0,3.5,0,7,0,10.5c0.2,2,0.3,3.9,0.5,5.9c2.8,27.8,13.7,51.9,32.9,72.1
		c17.4,18.2,38.6,29.7,63.3,34.8c5.6,1.1,11.2,1.8,16.9,2.1c0.5,0,1,0.1,1.5,0.2c3.5,0,7,0,10.5,0c1.9-0.2,3.9-0.3,5.8-0.5
		c25.8-2.5,48.6-12.1,68.1-29.2c20.5-17.9,33.6-40.4,38.9-67.2C254.5,90.8,222.8,33.5,167.9,12.5z M127.8,159.2
		c-2.9,7.6-8.3,12.7-15.6,16.1c-6.1,2.8-12.6,4.1-19.3,4.2c-17.9,0.1-35.8,0-53.7,0c-0.2,0-0.5,0-0.8,0c0-36.4,0-72.7,0-109
		c0.4,0,0.7,0,1.1,0c16.7,0,33.5,0,50.2,0c6.3,0,12.6,0.5,18.6,2.6c9.6,3.3,15,10,16,20.1c0.4,4.2,0.4,8.4-0.9,12.5
		c-1.9,6.3-6.2,10.5-11.7,13.6c-0.6,0.3-1.1,0.6-1.9,1c0.7,0.2,1.2,0.4,1.7,0.6c10.3,3.6,16.1,10.9,17.8,21.6
		C130.2,148.1,129.9,153.8,127.8,159.2z M150.9,76c14.7,0,29.3,0,44,0c0,4.1,0,8.1,0,12.1c-14.7,0-29.3,0-44,0
		C150.9,84.1,150.9,80.1,150.9,76z M211.5,143.3c-19,0-38,0-57.1,0c0.3,2.1,0.5,4.1,0.9,6c0.9,4.4,2.7,8.3,6.6,10.8
		c2.5,1.6,5.2,2.5,8.1,2.8c4.6,0.6,9,0.3,13.2-1.8c2.4-1.2,4.4-2.8,6.1-4.9c0.4-0.5,0.9-1,1.1-1.6c0.4-1.6,1.4-1.6,2.7-1.6
		c5.3,0.1,10.6,0,15.9,0c0.3,0,0.7,0,1,0c0,0.2,0.1,0.3,0,0.4c-1.9,5.9-4.6,11.3-8.8,15.8c-4.2,4.4-9.4,7.2-15.2,8.7
		c-9.3,2.4-18.6,2.4-27.8-0.7c-10.6-3.5-18-10.7-22-21c-4.7-12.1-4.8-24.5,0.4-36.4c5.9-13.5,16.7-21,31.2-23
		c6.6-0.9,13.1-0.4,19.3,2c8.5,3.2,14.8,9,19,17c3.3,6.2,4.9,12.8,5.3,19.8C211.7,138.1,211.5,140.6,211.5,143.3z"/>
	<path d="M96.1,132.1c-2.2-0.7-4.7-1-7-1.1c-8.6-0.1-17.2-0.1-25.7-0.1c-0.3,0-0.6,0-0.9,0c0,10,0,19.9,0,29.8c0.3,0,0.5,0,0.7,0
		c8.3,0,16.5,0.1,24.8,0c2.5,0,5.1-0.3,7.6-0.9c5.1-1.2,8.7-4.3,9.7-9.6c0.3-1.8,0.4-3.7,0.3-5.6C105.4,138.2,102.3,134,96.1,132.1z
		"/>
	<path d="M87.4,114.5c1.8,0,3.7-0.4,5.4-0.9c4.2-1.2,7.2-3.7,8-8.2c0.3-1.6,0.4-3.3,0.4-4.9c-0.2-5-2.7-8.4-7.4-10.1
		c-2.7-1-5.5-1.2-8.3-1.3c-7.4,0-14.8,0-22.2,0c-0.3,0-0.5,0-0.9,0.1c0,8.5,0,16.9,0,25.4c0.3,0,0.5,0.1,0.7,0.1
		C71.2,114.6,79.3,114.6,87.4,114.5z"/>
	<path d="M183.5,116.2c-2.4-2.2-5.5-3.1-8.7-3.3c-4.3-0.3-8.5,0.1-12.3,2.5c-5.2,3.3-7.4,8.2-7.9,14.1c11.8,0,23.5,0,35.2,0
		c-0.7-3.7-1.8-7.2-3.8-10.3C185.3,118.1,184.4,117,183.5,116.2z"/>
</g>
</svg>
