<?xml version="1.0" encoding="utf-8"?>
<!-- Generator: Adobe Illustrator 28.3.0, SVG Export Plug-In . SVG Version: 6.00 Build 0)  -->
<svg version="1.1" id="Capa_1" xmlns="http://www.w3.org/2000/svg" xmlns:xlink="http://www.w3.org/1999/xlink" x="0px" y="0px"
	 viewBox="0 0 250 250" style="enable-background:new 0 0 250 250;" xml:space="preserve">
<g>
	<path d="M136.1,134.1l0-71.9l-73.9,73.9l71.9,0C135.1,136.1,136.1,135.1,136.1,134.1z"/>
	<path d="M145.3,134.1c0,3-1.2,5.8-3.3,8c-2.1,2.1-5,3.3-8,3.3h-18.4v40.7l70.4-70.4l-40.7,0V134.1z"/>
	<path d="M125,4.7C58.6,4.7,4.7,58.6,4.7,125c0,66.4,53.8,120.3,120.3,120.3c66.4,0,120.3-53.8,120.3-120.3
		C245.3,58.6,191.4,4.7,125,4.7z M53.3,59.4h47.4c2.5,0,4.5,2,4.5,4.5c0,2.5-2,4.5-4.5,4.5H53.3c-2.5,0-4.5-2-4.5-4.5
		C48.8,61.4,50.8,59.4,53.3,59.4z M53.3,77.1h29.7c2.5,0,4.5,2,4.5,4.5c0,2.5-2,4.5-4.5,4.5H53.3c-2.5,0-4.5-2-4.5-4.5
		C48.8,79.2,50.8,77.1,53.3,77.1z M53.3,94.3h19.2c2.5,0,4.5,2,4.5,4.5c0,2.5-2,4.5-4.5,4.5H53.3c-2.5,0-4.5-2-4.5-4.5
		S50.8,94.3,53.3,94.3z M72.5,195.3H53.3c-2.5,0-4.5-2-4.5-4.5c0-2.5,2-4.5,4.5-4.5h19.2c2.5,0,4.5,2,4.5,4.5
		C77,193.3,75,195.3,72.5,195.3z M197.1,117.7l-79.4,79.4c-5.4,5.4-14.2,5.4-19.6,0l-45.2-45.2c-5.4-5.4-5.4-14.2,0-19.6l79.4-79.4
		c5.4-5.4,14.2-5.4,19.6,0l45.2,45.2C202.5,103.5,202.5,112.3,197.1,117.7z"/>
	<path d="M106.4,145.3l-47,0c0,0,0,0,0,0l45.2,45.2c0.5,0.5,1.1,0.8,1.8,1.1V145.3z"/>
	<path d="M145.4,59.4C145.4,59.4,145.3,59.4,145.4,59.4l0,47l46.3,0c-0.2-0.6-0.5-1.3-1.1-1.8L145.4,59.4z"/>
</g>
</svg>
