<?xml version="1.0" encoding="utf-8"?>
<!-- Generator: Adobe Illustrator 28.3.0, SVG Export Plug-In . SVG Version: 6.00 Build 0)  -->
<svg version="1.1" id="Capa_1" xmlns="http://www.w3.org/2000/svg" xmlns:xlink="http://www.w3.org/1999/xlink" x="0px" y="0px"
	 viewBox="0 0 250 250" style="enable-background:new 0 0 250 250;" xml:space="preserve">
<g>
	<path d="M129.2,58.5c-35,0-63.4,28.4-63.4,63.4c0,11.5,3.2,22.9,9.3,32.9l1.6,2.7l-6.3,23.6l23.8-6.4l2.7,1.6c9.8,5.9,21,9,32.4,9
		c35,0,63.4-28.4,63.4-63.4C192.6,86.9,164.2,58.5,129.2,58.5z M166.4,145.9c-2.4,5.7-8.2,9.4-14.2,10.5c-5.7,1.1-10.4-0.7-15.6-2.5
		c-4.7-1.5-9.2-3.8-13.4-6.4c-8.4-5.2-15.7-12-21.5-20c-1.8-2.4-3.4-4.9-5-7.5c-2-3.4-3.8-7.1-4.8-11c-0.4-1.6-0.6-3.3-0.6-5
		c-0.1-5.9,2.2-11.8,6.8-15.6c2.7-2.2,6.7-3.2,9.7-1.4c3.3,1.9,5,6.5,6.5,9.8c1.2,2.6,2.5,5.9,2.1,8.8c-0.5,2.9-2.8,5.3-4.6,7.5
		c-1.2,1.4-1.4,2.7-0.4,4.2c6,10,14.4,17.3,25.3,21.7c1.5,0.6,2.6,0.4,3.6-0.8c1.9-2.3,3.7-6.9,6.7-8.1c3.8-1.6,8,0.6,11.2,2.5
		c3,1.8,8,4,8.8,7.7C167.5,142.3,167.1,144.2,166.4,145.9z"/>
	<path d="M125,4.5C58.5,4.5,4.5,58.5,4.5,125c0,66.5,53.9,120.5,120.5,120.5c66.5,0,120.5-53.9,120.5-120.5
		C245.5,58.5,191.5,4.5,125,4.5z M129.2,200.1c-12.9,0-25.7-3.3-37.2-9.5L49.4,202l11.4-42.4c-6.4-11.6-9.8-24.6-9.8-37.8
		c0-43.1,35.1-78.2,78.2-78.2c43.1,0,78.2,35.1,78.2,78.2C207.4,165,172.3,200.1,129.2,200.1z"/>
</g>
</svg>
