<?xml version="1.0" encoding="utf-8"?>
<!-- Generator: Adobe Illustrator 28.3.0, SVG Export Plug-In . SVG Version: 6.00 Build 0)  -->
<svg version="1.1" id="Capa_1" xmlns="http://www.w3.org/2000/svg" xmlns:xlink="http://www.w3.org/1999/xlink" x="0px" y="0px"
	 viewBox="0 0 250 250" style="enable-background:new 0 0 250 250;" xml:space="preserve">
<g>
	<path d="M180,53.5c-29.8,0-54,24.2-54,54c0,18.9,9.7,35.5,24.4,45.2c-3,3.7-6.3,6.8-9.6,9.4c-8.5,6.7-9.9,19.1-2.9,27.5
		c5.2,6.3,13.9,8.6,21.6,5.8c54.5-20.1,69.8-65.3,69.8-65.3c3.3-7.2,4.9-14.7,4.8-22.1c0-0.1,0-0.2,0-0.4c0-0.2,0-0.3,0-0.5
		c0-0.9-0.1-1.7-0.1-2.5C232.3,76.1,208.8,53.5,180,53.5z"/>
	<path d="M99.7,97.3c3-3.7,6.3-6.8,9.6-9.4c8.5-6.7,9.9-19.1,2.9-27.5c-5.2-6.3-13.9-8.6-21.6-5.8C36.1,74.8,20.8,120,20.8,120
		c-3.3,7.2-4.9,14.7-4.8,22.1c0,0.1,0,0.2,0,0.4c0,0.2,0,0.3,0,0.5c0,0.9,0.1,1.7,0.1,2.5c1.6,28.4,25.1,51,53.9,51
		c29.8,0,54-24.2,54-54C124.1,123.6,114.4,107,99.7,97.3z"/>
</g>
</svg>
