<?xml version="1.0" encoding="utf-8"?>
<!-- Generator: Adobe Illustrator 28.3.0, SVG Export Plug-In . SVG Version: 6.00 Build 0)  -->
<svg version="1.1" id="Capa_1" xmlns="http://www.w3.org/2000/svg" xmlns:xlink="http://www.w3.org/1999/xlink" x="0px" y="0px"
	 viewBox="0 0 250 250" style="enable-background:new 0 0 250 250;" xml:space="preserve">
<g>
	<path d="M157.5,60.6H94c-18.1,0-32.8,14.7-32.8,32.8V157c0,18.1,14.7,32.8,32.8,32.8h63.5c18.1,0,32.8-14.7,32.8-32.8V93.5
		C190.3,75.4,175.6,60.6,157.5,60.6z M126.4,164.4c-21.6,0-39.2-17.6-39.2-39.2c0-21.6,17.6-39.2,39.2-39.2
		c21.6,0,39.2,17.6,39.2,39.2C165.6,146.8,148,164.4,126.4,164.4z M167.9,92.7c-5.2,0-9.3-4.2-9.3-9.3c0-5.2,4.2-9.3,9.3-9.3
		c5.2,0,9.3,4.2,9.3,9.3C177.2,88.6,173,92.7,167.9,92.7z"/>
	<path d="M126.4,100.1c-13.8,0-25.1,11.3-25.1,25.1c0,13.8,11.3,25.1,25.1,25.1c13.8,0,25.1-11.3,25.1-25.1
		C151.5,111.4,140.2,100.1,126.4,100.1z"/>
	<path d="M125.3,5.2C59,5.2,5.3,58.9,5.3,125.2c0,66.3,53.8,120.1,120.1,120.1c66.3,0,120.1-53.8,120.1-120.1
		C245.4,58.9,191.7,5.2,125.3,5.2z M205.3,157c0,26.4-21.4,47.8-47.8,47.8H94c-26.4,0-47.8-21.4-47.8-47.8V93.5
		c0-26.4,21.4-47.8,47.8-47.8h63.5c26.4,0,47.8,21.4,47.8,47.8V157z"/>
</g>
</svg>
