<?xml version="1.0" encoding="utf-8"?>
<!-- Generator: Adobe Illustrator 28.3.0, SVG Export Plug-In . SVG Version: 6.00 Build 0)  -->
<svg version="1.1" xmlns="http://www.w3.org/2000/svg" xmlns:xlink="http://www.w3.org/1999/xlink" x="0px" y="0px"
	 viewBox="0 0 250 250" style="enable-background:new 0 0 250 250;" xml:space="preserve">
<style type="text/css">
	.st0{display:none;}
	.st1{display:inline;}
</style>
<g id="Capa_1" class="st0">
	<g class="st1">
		<path d="M80.8,230.8c0-2.2,0-4.4,0-6.9c4.5,0,8.9,0,13.5,0c0-5.8,0-11.3,0-17.1c-0.8,0-1.6,0-2.4,0c-13.6,0-27.3-0.2-40.9,0.1
			c-7,0.1-14.7-4.5-14.7-14.5c-0.1-29.1-0.1-58.1,0-87.2c0-8.7,6.1-14.4,15.1-14.4c15.5,0,31,0,46.4,0c0.6,0,1.2,0,2.2,0
			c-0.5-3.2-1-6.2-1.5-9.2c-0.2-1.3-0.6-2.6-0.6-3.9c0-0.9,0.2-2.1,0.8-2.8c8.6-11.2,17.3-22.4,26-33.5c0.1-0.1,0.2-0.2,0.5-0.4
			c1,1.3,2,2.5,3,3.8c7.8,10,15.6,20.1,23.4,30.1c1.7,2.2,0.3,4.3,0.1,6.5c-0.3,3-1,6.1-1.5,9.4c1.3,0,2.5,0,3.6,0
			c14.9,0,29.9,0,44.8,0c4.7,0,8.9,1.3,12.1,5.1c2.3,2.7,3.2,5.9,3.2,9.3c0,29.1,0.1,58.1,0,87.2c0,7.3-3.9,12.3-10.6,14.1
			c-0.9,0.2-1.9,0.3-2.8,0.3c-13.6,0-27.3,0-40.9,0c-1.2,0-2.3,0-3.6,0c0,5.7,0,11.3,0,17c4.4,0,8.8,0,13.4,0c0,2.4,0,4.7,0,6.9
			C139.7,230.8,110.3,230.8,80.8,230.8z M103.4,111.5c-15.5,0-31,0-46.4,0c0,25,0,49.9,0,74.9c45.5,0,90.8,0,136.2,0
			c0-25,0-49.9,0-74.9c-15.6,0-31,0-46.3,0c-1.4,2.8-0.2,4.2,2,5.9c5.5,4.2,4.5,12.9-1.7,16.3c-1.3,0.7-1.6,1.5-1.6,2.9
			c0.1,7.2,0.1,14.5,0,21.7c0,4.8-2.8,7.6-7.6,7.6c-8.5,0-17-0.2-25.4,0.1c-4.5,0.1-8.2-2.9-8.1-8.2c0.2-7.1,0-14.2,0.1-21.3
			c0-1.3-0.4-2-1.6-2.7c-6.5-3.7-7.2-12.8-1.2-16.9c1.9-1.3,2.6-2.4,1.8-4.4C103.4,112.2,103.4,111.9,103.4,111.5z M50,193.2
			c0-29.6,0-59.1,0-88.7c17.5,0,34.8,0,52.2,0c-0.4-2.4-0.7-4.5-1.1-6.7c-0.9,0-1.5,0-2.1,0c-16.1,0-32.2,0-48.4,0
			c-4.7,0-7.4,2.7-7.4,7.4c0,29.1,0.1,58.1-0.1,87.2c0,4.3,2.7,7.9,7.8,7.9c6.8,0,13.6,0,20.5,0c26.9,0,53.7,0,80.6,0
			c15.8,0,31.5,0,47.3,0c5,0,7.6-2.8,7.6-7.7c0-29.1,0-58.1,0-87.2c0-4.9-2.6-7.5-7.5-7.5c-14.1,0-28.2,0-42.4,0c-2.6,0-5.2,0-8.1,0
			c-0.4,2.2-0.7,4.4-1.1,6.8c17.6,0,34.9,0,52.2,0c0,29.7,0,59.1,0,88.6C150,193.2,100,193.2,50,193.2z M121.7,57.1
			c-0.1-0.1-0.3-0.1-0.4-0.2c-5.4,6.9-10.8,13.9-16.1,20.8c-0.3,0.4-0.3,1.2-0.2,1.7c1.8,11.1,3.8,22.2,5.5,33.3
			c0.3,1.6,0.8,2,2.3,2c8.3-0.1,16.5,0,24.8,0c0.5,0,1.1-0.1,1.5-0.1c0.1-0.3,0.3-0.5,0.3-0.7c1.8-11.2,3.7-22.3,5.6-33.5
			c0.2-1.4,0.3-2.4-0.6-3.6c-4-5-7.9-10.1-11.8-15.1c-1.2-1.6-2.5-3.1-4.1-5.2c0,4.5,0,8.3,0,12.1c0,1.6,0.4,2.5,1.9,3.4
			c4.7,2.6,6.3,8.2,4,13c-2.3,4.8-7.7,7.1-12.6,5.3c-4.1-1.6-6.5-4.7-6.8-9c-0.3-4.2,1.6-7.4,5.3-9.6c0.7-0.4,1.5-1.2,1.5-1.8
			C121.7,65.6,121.7,61.3,121.7,57.1z M101.1,223.8c16,0,31.9,0,47.7,0c0-5.7,0-11.2,0-16.8c-16,0-31.8,0-47.7,0
			C101.1,212.6,101.1,218.1,101.1,223.8z M111.4,159c9.2,0,18.1,0,27.1,0c0-8,0-15.8,0-23.6c-9.1,0-18.1,0-27.1,0
			C111.4,143.4,111.4,151.1,111.4,159z M124.8,128.3c5.5,0,11,0,16.5,0c2.6,0,4-1.2,4.1-3.3c0-2.1-1.4-3.4-4-3.4
			c-10.9,0-21.9,0-32.8,0c-2.6,0-4,1.3-3.9,3.4c0,2,1.4,3.3,3.9,3.3C113.9,128.4,119.4,128.3,124.8,128.3z M128.3,80.6
			c0-1.9-1.5-3.3-3.4-3.2c-1.9,0-3.2,1.4-3.2,3.3c0,1.8,1.5,3.5,3.3,3.5C126.8,84.1,128.3,82.4,128.3,80.6z"/>
		<path d="M178.3,19.2c3.3,1.3,6.2,3.1,7.5,6.7c1.8,5.1-0.5,10.5-5.3,12.8c-4.8,2.2-10.5,0.4-13.2-4.3c-0.3-0.5-0.5-1-0.7-1.5
			c-5.5,0-11,0-17,0c6.4,4,11.4,8.8,15.3,14.7c3.9,5.8,6.3,12.3,7.3,19.4c2.5,0,4.8,0,7.2,0c0,6.8,0,13.5,0,20.3
			c-6.7,0-13.3,0-20.1,0c0-6.7,0-13.3,0-20.2c1.9,0,3.8,0,5.7,0c-1-13.6-14.7-33.2-38.2-34.2C103.3,31.9,87,50.2,84.9,67
			c1.9,0,3.8,0,5.8,0c0,6.9,0,13.6,0,20.3c-6.6,0-13.4,0-20.2,0c0-6.7,0-13.4,0-20.2c2.4,0,4.7,0,7.2,0c2.5-14.6,9.9-25.9,22.6-34.1
			c-1-0.1-1.5-0.1-2.1-0.1c-5.5,0-11,0-16.5,0c-1,0-1.7,0.2-2.2,1.2c-3.1,5.6-9.7,7.3-14.8,3.8c-5.1-3.5-6.1-10.4-1.9-15.1
			c1.4-1.6,3.7-2.4,5.6-3.6c1.2,0,2.5,0,3.7,0c3.4,1,6.2,2.8,7.7,6.2c0.2,0.4,1.1,0.7,1.7,0.7c4.4,0.1,8.8,0,13.2,0
			c13.5,0,27-0.1,40.5-0.1c9.9,0,19.9,0.1,29.8,0.1c0.6,0,1.6-0.2,1.7-0.6c1.5-3.3,4.2-5,7.5-6.2C175.6,19.2,177,19.2,178.3,19.2z
			 M84,73.9c-2.4,0-4.6,0-6.6,0c0,2.3,0,4.5,0,6.7c2.3,0,4.4,0,6.6,0C84,78.3,84,76.1,84,73.9z M166,80.5c2.3,0,4.5,0,6.7,0
			c0-2.3,0-4.5,0-6.6c-2.3,0-4.5,0-6.7,0C166,76.1,166,78.3,166,80.5z M67.1,29.5c0,1.9,1.5,3.4,3.4,3.3c1.8,0,3.3-1.7,3.3-3.5
			c-0.1-1.8-1.5-3.2-3.4-3.2C68.4,26.1,67.1,27.5,67.1,29.5z M176.2,32.8c1.8,0,3.4-1.6,3.3-3.4c0-1.9-1.5-3.3-3.5-3.3
			c-1.9,0-3.3,1.5-3.2,3.5C173,31.4,174.4,32.9,176.2,32.8z"/>
		<path d="M70.3,155.6c-2.2,0-4.4,0-6.7,0c0-2.2,0-4.3,0-6.5c2.2,0,4.4,0,6.7,0C70.3,151.2,70.3,153.3,70.3,155.6z"/>
		<path d="M83.9,155.6c-2.2,0-4.4,0-6.7,0c0-2.2,0-4.3,0-6.5c2.2,0,4.4,0,6.7,0C83.9,151.2,83.9,153.3,83.9,155.6z"/>
		<path d="M90.9,155.5c0-2.2,0-4.3,0-6.5c2.2,0,4.4,0,6.7,0c0,2.1,0,4.2,0,6.5C95.4,155.5,93.2,155.5,90.9,155.5z"/>
		<path d="M159.1,155.6c-2.3,0-4.4,0-6.7,0c0-2.2,0-4.3,0-6.6c2.2,0,4.4,0,6.7,0C159.1,151.2,159.1,153.3,159.1,155.6z"/>
		<path d="M172.8,149.1c0,2.2,0,4.2,0,6.4c-2.2,0-4.4,0-6.7,0c0-2,0-4.2,0-6.4C168.3,149.1,170.4,149.1,172.8,149.1z"/>
		<path d="M179.6,155.6c0-2.3,0-4.3,0-6.5c2.3,0,4.5,0,6.8,0c0,2.2,0,4.3,0,6.5C184.2,155.6,182,155.6,179.6,155.6z"/>
	</g>
</g>
<g id="Capa_2">
	<g>
		<path d="M101.6,164.4c15.6,0,31.1,0,46.4,0c0-1.6-0.2-3.2,0-4.7c0.7-4.8,4.8-8.3,9.7-8.3c6.8-0.1,13.7,0,20.5,0c0.7,0,1.5,0,2.5,0
			c0-2.3,0-4.5,0-6.6c0.2-13.2,10.9-23.4,24-22.9c11.6,0.4,21.5,10.1,21.8,21.8c0.2,10.6,0.4,21.2,0,31.8
			c-0.4,9.7-5.6,16.5-14.5,20.2c-1.4,0.6-1.8,1.2-1.8,2.6c0.1,6.1,0,12.3,0,18.6c4.4,0,8.7,0,13,0c0,2.2,0,4.3,0,6.4
			c-65.5,0-130.9,0-196.5,0c0-2.1,0-4.1,0-6.4c4.3,0,8.5,0,12.8,0c0.1-0.7,0.2-1.2,0.2-1.7c0-5.7,0-11.5,0-17.2
			c0-1.1-0.2-1.8-1.4-2.3c-9.7-3.9-15-11.8-15-22.2c0-9.6-0.1-19.3,0-28.9c0.1-13.2,10.9-23.3,24.1-22.8
			c11.7,0.5,21.3,10.2,21.8,22.1c0.1,2.4,0,4.8,0,7.4c0.9,0,1.6,0,2.3,0c6.3,0,12.6,0.3,18.9-0.1
			C97.2,150.8,103.5,156.1,101.6,164.4z M200.3,141.6c0,8.8,0,17.4,0,26c0,2.1-1.4,3.3-3.6,3.4c-1.1,0.1-2.2,0.1-3.2,0.5
			c-4.7,2.2-9.3,4.5-13.9,7c-5.7,3.1-8.7,7.9-8.8,14.4c-0.1,6.6,0,13.3,0,19.9c0,2.6,1.2,4.1,3.3,4.1c2,0,3.3-1.5,3.3-4.1
			c0-3.6,0-7.2,0-10.9c0-7.4,3.8-11.3,11.2-11.3c5.2,0,10.4,0.1,15.6,0c8.5-0.2,15.6-7.1,15.8-15.5c0.2-10.3,0.2-20.6,0-31
			c-0.2-8.5-7-15.4-15.3-15.8c-8.5-0.5-16.1,5.5-17.2,14c-0.5,3.4-0.2,7-0.2,10.4c0,4.2-0.9,5.1-5,5.1c-8,0-16,0-24,0
			c-3,0-4.9,2.7-3.3,4.8c0.7,0.9,2.2,1.6,3.4,1.6c11.3,0.1,22.5,0.1,33.8,0.1c0.5,0,1-0.1,1.7-0.2c0-7.6,0-15.1,0-22.7
			C196.1,141.6,198.1,141.6,200.3,141.6z M56.1,164.5c6.2,0,12,0,17.9,0c5.9,0,11.9,0,17.8,0c2.7,0,4.3-2.3,3.3-4.5
			c-0.7-1.6-2-2-3.7-2c-8.3,0-16.5,0-24.8,0c-2.8,0-4-1.2-4-4c0-2.9,0-5.9,0-8.8c-0.1-9.4-7.2-16.7-16.3-16.7
			c-9.2,0-16.4,7.3-16.5,16.8c0,9.6,0,19.1,0,28.7c0,9.7,7.1,16.8,16.8,16.8c5.2,0,10.4,0,15.6,0c6,0,10.2,4.2,10.2,10.2
			c0,4,0,7.9,0,11.9c0,2.6,1.2,4.1,3.2,4.1c2,0,3.3-1.5,3.3-4c0-6.5,0.1-13,0-19.5c-0.1-6.9-3.2-12-9.3-15.2
			c-4.3-2.2-8.6-4.4-13-6.5c-0.9-0.4-1.9-0.7-2.9-0.7c-3.2-0.1-4.2-1.1-4.2-4.4c0-5.1,0-10.1,0-15.2c0-3.3,0-6.5,0-9.9
			c2.3,0,4.3,0,6.6,0C56.1,149.2,56.1,156.7,56.1,164.5z M121.6,184.2c-6,0-11.8,0-17.6,0c-6.5,0-12.1-2.3-16.8-6.8
			c-1.8-1.8-3.6-3.6-5.4-5.3c-0.4-0.4-1-0.9-1.5-0.9c-3.2-0.1-6.3,0-9.5,0c0.9,0.9,2,1.4,2.9,2c7.2,4.1,11.3,10.4,11.6,18.6
			c0.4,8.4,0.1,16.8,0.1,25.2c7.5,0,15.4,0,23.3,0c1.7-6.7,6-11,12.8-12.8C121.6,197.5,121.6,191,121.6,184.2z M179.3,171.3
			c-6-0.7-11.7-1.1-15.4,4.8c-0.3,0.5-0.8,0.8-1.1,1.2c-4.8,4.7-10.5,7-17.1,7c-5.1,0-10.2,0-15.4,0c-0.6,0-1.3,0-1.9,0
			c0,6.9,0,13.4,0,20c6.8,1.8,11,6.1,12.7,12.7c8,0,15.8,0,23.6,0c-0.1-1.3-0.3-2.4-0.3-3.6c0-6.8-0.1-13.5,0-20.3
			c0.2-9.1,4.4-15.9,12.3-20.3C177.4,172.2,178.3,171.8,179.3,171.3z M159.4,171.2c-23.1,0-45.9,0-68.9,0c3.7,4.3,8,6.4,13.4,6.4
			c13.9,0,27.9,0,41.8,0C151.2,177.6,155.7,175.5,159.4,171.2z M184,216.8c6.3,0,12.9,0,19.5,0c0-6.6,0-13,0-19.5
			c-5.2,0-10.3,0-15.3,0c-3.1,0-4.2,1.1-4.2,4.2C184,206.6,184,211.7,184,216.8z M46.4,197.3c0,6.7,0,13.1,0,19.6
			c6.7,0,13.3,0,19.5,0c0-2.3,0-4.5,0-6.6c0-3.1,0-6.3,0-9.4c0-2.1-1.2-3.5-3.2-3.5C57.3,197.2,51.9,197.3,46.4,197.3z M116,216.8
			c6,0,12,0,17.9,0c-0.7-3.5-5-6.5-9-6.4C120.8,210.5,117.1,213.1,116,216.8z"/>
		<path d="M171.1,62.6c-0.2,5.9-1.5,11.6-4.3,16.8c-0.7,1.3-0.6,2.3,0.1,3.5c3.2,5.5,6.3,11,9.5,16.5c0.9,1.6,1.6,3.1,0.3,4.7
			c-1.3,1.7-3.1,1.4-4.8,0.8c-8.1-2.5-16.2-4.9-24.3-7.3c-1-0.3-2.2-0.3-3.1-0.1c-24,6.3-46.8-12.1-45.7-36.9
			c0.8-17.7,15.4-32.7,33.2-34c18-1.3,34.5,10.9,38.1,28.4C170.5,57.6,170.7,60.1,171.1,62.6z M167.2,96.6
			c-2.6-4.5-4.8-8.6-7.2-12.6c-1.3-2.1-1.2-3.9,0.1-6c6-10.5,6.1-21.2-0.6-31.4c-6.7-10.2-16.6-14.6-28.7-13
			c-16.9,2.2-28.4,18.7-24.8,35.2c3.8,17.1,20.8,27.2,37.4,22.2c1.7-0.5,3.2-0.6,5,0C154.3,92.8,160.5,94.6,167.2,96.6z"/>
		<path d="M65.9,98.9c0,10.8-8.9,19.7-19.7,19.7c-10.8,0-19.7-8.9-19.7-19.7c0-10.8,8.9-19.7,19.7-19.7C57.1,79.2,65.9,88,65.9,98.9
			z M59.3,98.9c0-7.3-5.9-13.2-13.1-13.2c-7.2,0-13,5.8-13.1,13c-0.1,7.3,5.8,13.2,13,13.3C53.4,112,59.3,106.1,59.3,98.9z"/>
		<path d="M184,98.9c0-10.8,8.8-19.7,19.6-19.7c10.8,0,19.7,8.8,19.7,19.6c0,10.8-8.8,19.7-19.6,19.7
			C192.9,118.6,184,109.7,184,98.9z M203.8,85.7c-7.3-0.1-13.2,5.8-13.3,13c-0.1,7.2,5.7,13.1,12.8,13.2c7.3,0.1,13.3-5.7,13.4-12.9
			C216.9,91.8,211.1,85.8,203.8,85.7z"/>
		<path d="M72.6,121.9c2.2,0,4.2,0,6.3,0c0,2.1,0,4.1,0,6.3c-2,0-4.1,0-6.3,0C72.6,126.2,72.6,124.1,72.6,121.9z"/>
		<path d="M85.7,121.9c2.1,0,4.1,0,6.3,0c0,2,0,4.1,0,6.3c-2,0-4.1,0-6.3,0C85.7,126.2,85.7,124.1,85.7,121.9z"/>
		<path d="M98.8,128.2c0-2.2,0-4.2,0-6.3c2.1,0,4.1,0,6.3,0c0,2,0,4.1,0,6.3C103.1,128.2,101,128.2,98.8,128.2z"/>
		<path d="M124.8,65.9c-2.1,0-4.1,0-6.3,0c0-2.1,0-4.1,0-6.3c2.1,0,4.1,0,6.3,0C124.8,61.7,124.8,63.7,124.8,65.9z"/>
		<path d="M131.6,59.6c2.1,0,4.1,0,6.3,0c0,2.1,0,4.1,0,6.3c-2.1,0-4.1,0-6.3,0C131.6,63.8,131.6,61.8,131.6,59.6z"/>
		<path d="M144.8,59.6c2.1,0,4.1,0,6.3,0c0,2.1,0,4.2,0,6.4c-2.1,0-4.1,0-6.3,0C144.8,63.9,144.8,61.8,144.8,59.6z"/>
	</g>
</g>
</svg>
