<?xml version="1.0" encoding="utf-8"?>
<!-- Generator: Adobe Illustrator 28.3.0, SVG Export Plug-In . SVG Version: 6.00 Build 0)  -->
<svg version="1.1" id="Capa_1" xmlns="http://www.w3.org/2000/svg" xmlns:xlink="http://www.w3.org/1999/xlink" x="0px" y="0px"
	 viewBox="0 0 250 250" style="enable-background:new 0 0 250 250;" xml:space="preserve">
<path d="M125.3,5.2C59,5.2,5.3,58.9,5.3,125.2c0,66.3,53.8,120.1,120.1,120.1c66.3,0,120.1-53.8,120.1-120.1
	C245.4,58.9,191.7,5.2,125.3,5.2z M94.5,184.4H68.2V99.9h26.3V184.4z M81.3,88.4c-8.4,0-15.2-6.8-15.2-15.2
	c0-8.4,6.8-15.2,15.2-15.2c8.4,0,15.2,6.8,15.2,15.2C96.5,81.6,89.7,88.4,81.3,88.4z M192.8,184.4h-26.2v-41
	c0-9.8-0.2-22.4-13.6-22.4c-13.7,0-15.7,10.7-15.7,21.7v41.8h-26.2V99.9h25.2v11.5h0.3c3.5-6.6,12.1-13.6,24.8-13.6
	c26.6,0,31.5,17.5,31.5,40.2V184.4z"/>
</svg>
